<?xml version="1.0" encoding="utf-8"?>
<!-- Generator: Adobe Illustrator 17.0.0, SVG Export Plug-In . SVG Version: 6.00 Build 0)  -->
<!DOCTYPE svg PUBLIC "-//W3C//DTD SVG 1.1//EN" "http://www.w3.org/Graphics/SVG/1.1/DTD/svg11.dtd">
<svg version="1.1" id="Layer_1" xmlns="http://www.w3.org/2000/svg" xmlns:xlink="http://www.w3.org/1999/xlink" x="0px" y="0px"
	 width="454.898px" height="117.299px" viewBox="0 0 454.898 117.299" enable-background="new 0 0 454.898 117.299"
	 xml:space="preserve">
<g id="main">
	<path fill="#000000" d="M211.219,80.782c-2.11,0-0.474-2.814,1.901-3.454c7.932-2.163,16.477-4.472,19.841-5.245
		c54.005-12.377,75.561-20.093,88.743-27.516c12.932-7.283,34.197-29.62-15.747-40.25c-14.984-3.181-38.75-5.17-64.346-3.957
		c-21.64,1.029-32.904,3.524-41.027,5.771c-8.097,2.215-13.525,2.789-17.354,9.208c-1.655,2.776-4.074,7.123-6.722,11.862
		c-1.989,3.576,1.049,5.242,5.119,3.879c6.176-2.088,22.582-8.47,46.633-11.226c16.028-1.838,45.687-2.75,53.272,3.239
		c3.725,2.934,7.022,7.397-6.521,13.781c-21.978,10.394-90.953,26.402-105.862,29.824c-17.523,4.013-18.892,5.746-22.995,12.979
		c-1.087,1.925-5.262,9.105-6.617,11.5c-2.951,5.171-0.515,7.84,5.972,7.84c20.497,0,157.698,0.023,157.698,0.023
		c4.059,0,7.588-2.14,9.589-5.315c0,0,2.105-3.535,2.872-4.942c0.454-0.802,1.012-1.872,1.012-3.012c0-2.773-2.279-5.019-5.07-5.019
		L211.219,80.782z"/>
	<path fill="#000000" d="M441.408,117.288c4.059,0,7.605-2.145,9.601-5.326c0.005,0,2.099-3.536,2.866-4.943
		c0.459-0.791,1.023-1.872,1.023-3c0-2.779-2.267-5.024-5.082-5.024l-131.078,0.012c-4.07,0-7.594,2.14-9.595,5.315
		c-0.011,0-2.104,3.535-2.872,4.942c-0.459,0.796-1.017,1.86-1.017,3c0,2.779,2.267,5.036,5.076,5.036L441.408,117.288z"/>
	<path fill="#000000" d="M178.731,13.33c0.913-2.913-1.128-4.646-3.957-4.634c-6.239,0.052-16.034,0.014-22.806,0
		c-7.012-0.012-9.17,1.369-17.904,7.46c-19.363,13.511-29.367,20.241-55.988,38.407c-8.196,5.582-12.705,8.493-15.575,8.713
		c-2.634-0.221-3.843-3.131-5.71-8.713c-6.068-18.166-8.446-24.896-12.525-38.407c-1.852-6.091-2.44-7.472-9.467-7.46
		c-6.795,0.014-16.537,0-22.817,0c-6.527,0-9.729,0.067-11.301,2.637c-1.311,2.137-0.591,5.032,0.98,10.301
		c2.785,9.35,17.072,51.699,22.753,69.277c1.89,5.815,1.921,8.13,7.309,8.13h21.082c5.393,0,8.033-2.314,16.514-8.13
		c25.571-17.578,87.568-60.058,101.143-69.277C176.108,17.802,177.888,16.034,178.731,13.33"/>
</g>
</svg>
