<?xml version="1.0" encoding="utf-8"?>
<!-- Generator: Adobe Illustrator 15.0.0, SVG Export Plug-In . SVG Version: 6.00 Build 0)  -->
<!DOCTYPE svg PUBLIC "-//W3C//DTD SVG 1.1//EN" "http://www.w3.org/Graphics/SVG/1.1/DTD/svg11.dtd">
<svg version="1.1" id="Layer_1" xmlns="http://www.w3.org/2000/svg" xmlns:xlink="http://www.w3.org/1999/xlink" x="0px" y="0px"
	 width="31.992px" height="31.992px" viewBox="29.004 7.75 31.992 31.992" enable-background="new 29.004 7.75 31.992 31.992"
	 xml:space="preserve">
<g>
	<path d="M45,7.75c-8.834,0-15.996,7.162-15.996,15.996c0,8.834,7.162,15.996,15.996,15.996s15.996-7.162,15.996-15.996
		C60.996,14.912,53.834,7.75,45,7.75z M42.382,33.309c-2.991,0-5.485-1.29-5.485-3.46c0-1.675,1.061-3.849,6.016-3.849
		c-0.737-0.6-0.918-1.439-0.468-2.347c-2.901,0-4.387-1.706-4.387-3.871c0-2.119,1.575-4.046,4.79-4.046c0.812,0,5.148,0,5.148,0
		l-1.15,1.208h-1.352c0.954,0.547,1.46,1.672,1.46,2.911c0,1.138-0.627,2.06-1.521,2.752c-1.587,1.228-1.181,1.912,0.482,3.125
		c1.641,1.229,2.182,2.177,2.182,3.629C48.097,31.142,46.471,33.309,42.382,33.309z M54.812,19.538h-2.376v2.374H51.25v-2.374
		h-2.376V18.35h2.376v-2.376h1.187v2.376h2.376V19.538z"/>
	<path d="M44.886,19.934c-0.238-1.823-1.426-3.317-2.813-3.36c-1.387-0.04-2.317,1.354-2.079,3.176
		c0.24,1.823,1.56,3.096,2.947,3.138C44.327,22.929,45.125,21.755,44.886,19.934z"/>
	<path d="M42.655,26.616c-2.067-0.023-3.819,1.307-3.819,2.847c0,1.572,1.493,2.881,3.561,2.881c2.643,0,3.92-1.228,3.92-2.8
		C46.316,28.044,44.949,26.616,42.655,26.616z"/>
</g>
</svg>
