<svg id="Layer_1" data-name="Layer 1" xmlns="http://www.w3.org/2000/svg" viewBox="0 0 44.49 616.78"><title>sidebar_lab</title><path d="M0.64,605.42l23.77,5V596.23l3,0.64V614.6L0.64,609v-3.56Z"/><path d="M0.64,573.09l26.77-4.84v3.67l-8.06,1.24v11.29l8.06,4.69v3.94L0.64,577v-3.9Zm15.71,0.53-12.56,2v0.08l12.56,7.16v-9.22Z"/><path d="M0.64,547.4q0-3.94,1.69-5.7A6.23,6.23,0,0,1,7,539.93a7,7,0,0,1,4.14,1.37,6.27,6.27,0,0,1,1.5,1.59A5.31,5.31,0,0,1,13.5,545h0.08a5.41,5.41,0,0,1,2-2.93A5.78,5.78,0,0,1,19.13,541a7.93,7.93,0,0,1,3.45.73,7.52,7.52,0,0,1,2.61,2,9.4,9.4,0,0,1,1.65,3,11.55,11.55,0,0,1,.58,3.71v13.24L0.64,558.16V547.4Zm11.51,1.8q0-5.7-5.1-5.7a3.06,3.06,0,0,0-1.87.51,3.13,3.13,0,0,0-1,1.29A5.82,5.82,0,0,0,3.73,547a17.2,17.2,0,0,0-.09,1.74v6.6l8.51,1.8v-8Zm12.26,1.88a15.28,15.28,0,0,0-.13-1.76,6.27,6.27,0,0,0-.67-2.14A5.24,5.24,0,0,0,22,545.35a4.81,4.81,0,0,0-2.89-.77,4.13,4.13,0,0,0-2.06.45,3,3,0,0,0-1.2,1.22A5.43,5.43,0,0,0,15.3,548a14,14,0,0,0-.15,2.08v7.65l9.26,2v-8.62Z"/><path d="M0.64,499.92l3,0.64v14.06l8.51,1.76V504l3,0.64V517l12.26,2.55v3.56L0.64,517.55V499.92Z"/><path d="M10.11,498.13a16.11,16.11,0,0,1-5.19-2.91A13.76,13.76,0,0,1,0,484.44a11.45,11.45,0,0,1,.92-4.67,10.3,10.3,0,0,1,2.51-3.52A11,11,0,0,1,7.2,474a13.87,13.87,0,0,1,4.65-.77,18.77,18.77,0,0,1,6.08,1,16.29,16.29,0,0,1,5.17,2.85,13.7,13.7,0,0,1,3.58,4.54,13.35,13.35,0,0,1,1.33,6q0,5.51-3.06,8.49t-8.64,3A19,19,0,0,1,10.11,498.13Zm9.77-3a7.55,7.55,0,0,0,2.76-1.46,6.59,6.59,0,0,0,1.78-2.46,8.81,8.81,0,0,0,.64-3.51A9.26,9.26,0,0,0,23.89,483a10.83,10.83,0,0,0-3-3.39,13.65,13.65,0,0,0-4.24-2.06,16.84,16.84,0,0,0-4.76-.69,12,12,0,0,0-3.49.49,8,8,0,0,0-2.79,1.46,7.16,7.16,0,0,0-1.87,2.38A7.34,7.34,0,0,0,3,484.44a9.75,9.75,0,0,0,1.18,4.89,11,11,0,0,0,3.06,3.47,13.35,13.35,0,0,0,4.26,2.08,17.14,17.14,0,0,0,4.82.69A12.27,12.27,0,0,0,19.88,495.09Z"/><path d="M0.64,454A16.74,16.74,0,0,1,1,450.76a8.22,8.22,0,0,1,1.11-2.83,5.77,5.77,0,0,1,2.1-2,6.71,6.71,0,0,1,3.3-.73,7.34,7.34,0,0,1,2.57.45,7.69,7.69,0,0,1,2.19,1.24,6.7,6.7,0,0,1,2.44,4.35h0.08a3.51,3.51,0,0,1,.83-1.44,3.93,3.93,0,0,1,1.33-.9,6,6,0,0,1,1.71-.41,9.26,9.26,0,0,1,2,0q0.9,0.08,1.78.22T24.09,449a9.76,9.76,0,0,0,1.71,0,4.28,4.28,0,0,0,1.61-.49v3.71a7.63,7.63,0,0,1-2.21.3,16.23,16.23,0,0,1-3.53-.37,10.75,10.75,0,0,0-2.91-.17,3.82,3.82,0,0,0-1.71.54,2.14,2.14,0,0,0-.83,1,4.15,4.15,0,0,0-.26,1.2v9.34l11.44,2.4V470L0.64,464.36V454ZM13,455.4a8.61,8.61,0,0,0-.56-3.39A5.62,5.62,0,0,0,11,450a4.26,4.26,0,0,0-1.73-1,6.46,6.46,0,0,0-1.63-.24,4,4,0,0,0-2,.45,3.41,3.41,0,0,0-1.24,1.18,4.78,4.78,0,0,0-.62,1.67,11,11,0,0,0-.17,2v7.39l9.34,2v-8Z"/><path d="M3.64,414.86l23.77,5v3.56l-23.77-5v9l-3-.64v-21.6l3,0.67v9Z"/><path d="M0.64,396.77l11.51,2.44v-14l-11.51-2.4v-3.56l26.77,5.63v3.56l-12.26-2.59v14l12.26,2.59V406L0.64,400.37v-3.6Z"/><path d="M0.64,352.85l3,0.6v14.89l8.51,1.8V356.26l3,0.6v13.91l9.26,2V357.65l3,0.67V377L0.64,371.3V352.85Z"/><path d="M19.65,316.1a14.26,14.26,0,0,1,2.18.67,9.61,9.61,0,0,1,2.83,1.74A9.29,9.29,0,0,1,26.59,321a10.74,10.74,0,0,1,1.09,3A15.82,15.82,0,0,1,28,327.2q0,6-3,8.42t-8.64,1.29L0.64,333.57V330l16.65,3.53q3.94,0.9,5.85-.75T25,327.2a9.17,9.17,0,0,0-.6-3.6,5.78,5.78,0,0,0-1.71-2.27,8.41,8.41,0,0,0-2.64-1.39,34.93,34.93,0,0,0-3.41-.92l-16-3.37v-3.56l16,3.34Q18.26,315.76,19.65,316.1Z"/><path d="M0.64,300.59L22.8,291V291L0.64,286.49V283l26.77,5.66v3.83L5.4,302v0.08l22,4.54v3.45L0.64,304.42v-3.83Z"/><path d="M5.91,262.31a4.2,4.2,0,0,0-1.73,1.24,4.72,4.72,0,0,0-.92,2A11.59,11.59,0,0,0,3,268.06a9.46,9.46,0,0,0,.24,2.06,7.17,7.17,0,0,0,.77,2,4.78,4.78,0,0,0,1.35,1.52,3.36,3.36,0,0,0,2,.6A3.58,3.58,0,0,0,10.26,273a5.05,5.05,0,0,0,.84-1.39,15.89,15.89,0,0,0,.6-1.71l1-3.6a17.45,17.45,0,0,1,.84-2.4,7.64,7.64,0,0,1,1.31-2.06,5.87,5.87,0,0,1,2-1.44,7.55,7.55,0,0,1,3-.54,6.65,6.65,0,0,1,3.62,1A8.25,8.25,0,0,1,26,263.26a11.14,11.14,0,0,1,1.48,3.36,14.34,14.34,0,0,1,.49,3.66,17,17,0,0,1-.54,4.42,9.26,9.26,0,0,1-1.67,3.43,7.09,7.09,0,0,1-2.91,2.14,9.3,9.3,0,0,1-4.26.54v-3.56a7.44,7.44,0,0,0,3-.41,4.61,4.61,0,0,0,2-1.44,5.86,5.86,0,0,0,1.07-2.31,12.93,12.93,0,0,0,.32-3,10.23,10.23,0,0,0-.3-2.46,6.87,6.87,0,0,0-.92-2.16A4.87,4.87,0,0,0,22.24,264a4.45,4.45,0,0,0-2.33-.58,3.79,3.79,0,0,0-1.74.38,3.67,3.67,0,0,0-1.24,1,6.18,6.18,0,0,0-.84,1.52,17.69,17.69,0,0,0-.6,1.84l-1,3.64a12.88,12.88,0,0,1-.88,2.29A7.5,7.5,0,0,1,12.28,276a6.06,6.06,0,0,1-1.91,1.31,6.41,6.41,0,0,1-2.61.49A6.49,6.49,0,0,1,4.37,277,7.94,7.94,0,0,1,2,274.72a9.91,9.91,0,0,1-1.46-3.11A13.14,13.14,0,0,1,0,268.06a13.74,13.74,0,0,1,.51-3.77A9.29,9.29,0,0,1,2,261.16,7.13,7.13,0,0,1,4.69,259a8.25,8.25,0,0,1,3.86-.69v3.56A6.68,6.68,0,0,0,5.91,262.31Z"/><path d="M3.64,241.29l23.77,5v3.56l-23.77-5v9l-3-.64v-21.6l3,0.67v9Z"/><path d="M0.64,218.28l26.77-4.84v3.67l-8.06,1.24v11.29l8.06,4.69v3.94L0.64,222.18v-3.9Zm15.71,0.53-12.56,2v0.08L16.35,228v-9.22Z"/><path d="M0.64,192.59q0-3.94,1.69-5.7A6.23,6.23,0,0,1,7,185.13a7,7,0,0,1,4.14,1.37,6.27,6.27,0,0,1,1.5,1.59,5.31,5.31,0,0,1,.81,2.14h0.08a5.41,5.41,0,0,1,2-2.93,5.78,5.78,0,0,1,3.58-1.09,7.93,7.93,0,0,1,3.45.73,7.52,7.52,0,0,1,2.61,2,9.4,9.4,0,0,1,1.65,3,11.55,11.55,0,0,1,.58,3.71v13.24L0.64,203.36V192.59Zm11.51,1.8q0-5.7-5.1-5.7a3.06,3.06,0,0,0-1.87.51,3.13,3.13,0,0,0-1,1.29,5.82,5.82,0,0,0-.43,1.71,17.2,17.2,0,0,0-.09,1.74v6.6l8.51,1.8v-8Zm12.26,1.88a15.28,15.28,0,0,0-.13-1.76,6.27,6.27,0,0,0-.67-2.14A5.24,5.24,0,0,0,22,190.55a4.81,4.81,0,0,0-2.89-.77,4.13,4.13,0,0,0-2.06.45,3,3,0,0,0-1.2,1.22,5.43,5.43,0,0,0-.56,1.76,14,14,0,0,0-.15,2.08v7.65l9.26,2v-8.62Z"/><path d="M0.64,172.23l23.77,5V163l3,0.64v17.74L0.64,175.8v-3.56Z"/><path d="M0.64,134.69l3,0.6v14.89l8.51,1.8V138.1l3,0.6v13.91l9.26,2V139.49l3,0.67V158.8L0.64,153.14V134.69Z"/><path d="M0.64,110.39l23-3.56v-0.07l-23-13.24V88.56l26.77,5.66v3.41L4,92.16v0.08l23.44,13.65v3.41L4,112.79v0.08l23.44,4.69V121L0.64,115.34v-5Z"/><path d="M0.64,62.2l3,0.6V77.69l8.51,1.8V65.62l3,0.6V80.13l9.26,2V67l3,0.67V86.32L0.64,80.65V62.2Z"/><path d="M0.64,46.92q0-5,2.74-7.56a10.53,10.53,0,0,1,7.5-2.57,20.32,20.32,0,0,1,6.84,1.09,15.32,15.32,0,0,1,5.21,3,13.16,13.16,0,0,1,3.32,4.69,15.38,15.38,0,0,1,1.16,6.08V62L0.64,56.29V46.92Zm23.77,4.72a10.31,10.31,0,0,0-1.14-5,10.8,10.8,0,0,0-3-3.52A13,13,0,0,0,16,41a17,17,0,0,0-4.8-.69,12.73,12.73,0,0,0-2.85.32A6.13,6.13,0,0,0,6,41.81a5.81,5.81,0,0,0-1.69,2.27,9.09,9.09,0,0,0-.64,3.66v5.7l20.77,4.39V51.64Z"/><path d="M0.64,24.44l26.77,5.63v3.56L0.64,28V24.44Z"/><path d="M0.64,4.84L27.41,0V3.67L19.35,4.91V16.2l8.06,4.69v3.94L0.64,8.74V4.84ZM16.35,5.36l-12.56,2V7.42l12.56,7.16V5.36Z"/><rect x="42.49" width="2" height="616.78"/></svg>