<?xml version="1.0" encoding="utf-8"?>
<!-- Generator: Adobe Illustrator 17.0.0, SVG Export Plug-In . SVG Version: 6.00 Build 0)  -->
<!DOCTYPE svg PUBLIC "-//W3C//DTD SVG 1.1//EN" "http://www.w3.org/Graphics/SVG/1.1/DTD/svg11.dtd">
<svg version="1.1" id="Layer_1" xmlns="http://www.w3.org/2000/svg" xmlns:xlink="http://www.w3.org/1999/xlink" x="0px" y="0px"
	 width="42.941px" height="595.28px" viewBox="0 0 42.941 595.28" enable-background="new 0 0 42.941 595.28" xml:space="preserve">
<title>sidebar_lab</title>
<path d="M0.62,584.316l22.941,4.826v-13.695l2.895,0.618v17.112L0.62,587.771v-3.436V584.316z"/>
<path d="M0.62,553.113l25.837-4.671v3.542l-7.779,1.197v10.896l7.779,4.527v3.803L0.62,556.887v-3.764V553.113z M15.782,553.625
	l-12.122,1.93v0.077l12.122,6.91v-8.899V553.625z"/>
<path d="M0.62,528.318c0-2.535,0.544-4.369,1.631-5.501c1.198-1.173,2.832-1.792,4.507-1.708c1.439,0.004,2.839,0.467,3.996,1.322
	c0.569,0.423,1.059,0.942,1.448,1.535c0.421,0.611,0.704,1.306,0.83,2.036h0.077c0.307-1.133,0.987-2.129,1.93-2.828
	c0.998-0.711,2.202-1.074,3.426-1.033c1.149-0.018,2.287,0.223,3.33,0.705c0.972,0.45,1.832,1.109,2.519,1.93
	c0.704,0.86,1.243,1.841,1.592,2.895c0.381,1.155,0.57,2.365,0.56,3.581v12.778L0.62,538.703V528.318z M11.728,530.056
	c0-3.668-1.641-5.501-4.922-5.501c-0.639-0.036-1.272,0.137-1.805,0.492c-0.426,0.322-0.759,0.752-0.965,1.245
	c-0.227,0.522-0.373,1.075-0.434,1.641c-0.057,0.558-0.086,1.118-0.087,1.679v6.37l8.213,1.737v-7.721V530.056z M23.561,531.87
	c-0.009-0.568-0.051-1.135-0.125-1.699c-0.09-0.722-0.309-1.421-0.647-2.065c-0.372-0.703-0.904-1.308-1.554-1.766
	c-0.827-0.538-1.804-0.798-2.789-0.743c-0.689-0.03-1.374,0.12-1.988,0.434c-0.492,0.272-0.895,0.681-1.158,1.177
	c-0.271,0.529-0.451,1.1-0.531,1.689c-0.098,0.665-0.146,1.336-0.145,2.008v7.383l8.937,1.93v-8.32V531.87z"/>
<path d="M0.62,482.494l2.895,0.618v13.57l8.213,1.699v-11.949l2.895,0.618v11.929l11.833,2.461v3.436L0.62,499.509V482.494z"/>
<path d="M9.76,480.766c-1.83-0.617-3.528-1.569-5.009-2.809c-3.072-2.574-4.817-6.397-4.748-10.404
	c-0.023-1.548,0.279-3.084,0.888-4.507c0.558-1.291,1.384-2.449,2.423-3.397c1.055-0.961,2.292-1.7,3.639-2.172
	c1.443-0.502,2.96-0.753,4.488-0.743c1.996-0.004,3.979,0.322,5.868,0.965c1.817,0.605,3.508,1.538,4.99,2.751
	c1.45,1.198,2.628,2.692,3.455,4.382c0.872,1.804,1.312,3.787,1.284,5.791c0,3.545-0.984,6.277-2.953,8.194
	c-1.969,1.917-4.748,2.883-8.339,2.895C13.71,481.73,11.688,481.411,9.76,480.766z M19.189,477.871
	c0.976-0.279,1.884-0.759,2.664-1.409c0.75-0.647,1.338-1.46,1.718-2.374c0.435-1.075,0.645-2.228,0.618-3.388
	c0.033-1.585-0.357-3.151-1.129-4.536c-0.724-1.282-1.711-2.397-2.895-3.272c-1.238-0.895-2.623-1.568-4.092-1.988
	c-1.492-0.441-3.039-0.665-4.594-0.666c-1.14-0.009-2.275,0.15-3.368,0.473c-0.982,0.287-1.897,0.766-2.693,1.409
	c-0.758,0.628-1.374,1.411-1.805,2.297c-0.475,0.977-0.72,2.05-0.714,3.137c-0.04,1.646,0.353,3.273,1.139,4.72
	c0.736,1.313,1.743,2.455,2.953,3.349c1.24,0.909,2.632,1.589,4.112,2.007c1.511,0.442,3.078,0.666,4.652,0.666
	c1.162,0.015,2.32-0.141,3.436-0.463L19.189,477.871z"/>
<path d="M0.62,438.174c0.014-1.051,0.13-2.098,0.347-3.127c0.184-0.969,0.547-1.895,1.071-2.731c0.5-0.805,1.198-1.47,2.027-1.93
	c0.984-0.503,2.081-0.745,3.185-0.705c0.846-0.005,1.686,0.143,2.48,0.434c0.765,0.28,1.48,0.684,2.114,1.197
	c1.296,1.044,2.14,2.548,2.355,4.198h0.077c0.152-0.521,0.427-0.997,0.801-1.39c0.364-0.375,0.801-0.671,1.284-0.869
	c0.528-0.212,1.084-0.346,1.65-0.396c0.642-0.07,1.289-0.07,1.93,0c0.579,0.051,1.152,0.122,1.718,0.212
	c0.566,0.09,1.097,0.183,1.592,0.28c0.549,0.048,1.101,0.048,1.65,0c0.544-0.053,1.072-0.214,1.554-0.473v3.581
	c-0.693,0.2-1.412,0.298-2.133,0.29c-1.145,0.006-2.288-0.114-3.407-0.357c-0.924-0.182-1.869-0.237-2.809-0.164
	c-0.584,0.04-1.149,0.219-1.65,0.521c-0.361,0.231-0.641,0.568-0.801,0.965c-0.141,0.371-0.225,0.762-0.251,1.158v9.014
	l11.041,2.316v3.417L0.62,448.173V438.174z M12.549,439.525c0.041-1.116-0.142-2.229-0.54-3.272c-0.314-0.742-0.788-1.404-1.39-1.94
	c-0.472-0.45-1.044-0.78-1.67-0.965c-0.512-0.144-1.041-0.222-1.573-0.232c-0.67-0.025-1.336,0.124-1.93,0.434
	c-0.489,0.272-0.901,0.664-1.197,1.139c-0.299,0.495-0.502,1.042-0.598,1.612c-0.113,0.637-0.168,1.283-0.164,1.93v7.132l9.014,1.93
	v-7.721L12.549,439.525z"/>
<path d="M3.515,400.399l22.941,4.826v3.436l-22.941-4.826v8.686l-2.895-0.618v-20.847l2.895,0.647v8.686L3.515,400.399z"/>
<path d="M0.62,382.939l11.109,2.355v-13.512L0.62,369.466v-3.436l25.837,5.434v3.436l-11.833-2.5v13.512l11.833,2.5v3.436
	L0.62,386.414V382.939z"/>
<path d="M0.62,340.55l2.895,0.579V355.5l8.213,1.737v-13.396l2.895,0.579v13.425l8.937,1.93v-14.593l2.895,0.647v18.029
	L0.62,358.357V340.55z"/>
<path d="M18.967,305.081c0.717,0.159,1.421,0.375,2.104,0.647c1.001,0.397,1.925,0.965,2.731,1.679
	c0.753,0.689,1.383,1.502,1.863,2.403c0.493,0.907,0.848,1.883,1.052,2.895c0.208,1.016,0.311,2.051,0.309,3.088
	c0,3.861-0.965,6.569-2.895,8.127c-1.93,1.557-4.71,1.972-8.339,1.245L0.62,321.942v-3.446l16.07,3.407
	c2.535,0.579,4.417,0.338,5.646-0.724c1.229-1.062,1.827-2.857,1.795-5.385c0.042-1.185-0.155-2.367-0.579-3.475
	c-0.359-0.856-0.926-1.609-1.65-2.191c-0.763-0.595-1.625-1.05-2.548-1.342c-1.081-0.351-2.18-0.648-3.291-0.888L0.62,304.647
	v-3.436l15.442,3.224C17.104,304.647,18.073,304.862,18.967,305.081z"/>
<path d="M0.62,290.112l21.388-9.256l0,0L0.62,276.503v-3.368l25.837,5.463v3.697l-21.243,9.178v0.077l21.233,4.382v3.33
	L0.62,293.808V290.112L0.62,290.112z"/>
<path d="M5.706,253.166c-0.65,0.249-1.225,0.661-1.67,1.197c-0.444,0.564-0.748,1.226-0.888,1.93
	c-0.172,0.796-0.256,1.608-0.251,2.423c0.004,0.669,0.082,1.336,0.232,1.988c0.15,0.677,0.4,1.328,0.743,1.93
	c0.324,0.577,0.768,1.077,1.303,1.467c0.566,0.393,1.242,0.596,1.93,0.579c1.068,0.056,2.101-0.386,2.799-1.197
	c0.341-0.401,0.615-0.854,0.811-1.342c0.224-0.539,0.418-1.09,0.579-1.65l0.965-3.475c0.214-0.791,0.485-1.565,0.811-2.316
	c0.312-0.726,0.739-1.398,1.264-1.988c0.538-0.595,1.196-1.068,1.93-1.39c0.92-0.369,1.905-0.546,2.895-0.521
	c1.233-0.021,2.446,0.314,3.494,0.965c0.97,0.589,1.802,1.379,2.442,2.316c0.652,0.995,1.135,2.09,1.428,3.243
	c0.309,1.152,0.468,2.34,0.473,3.532c0.014,1.439-0.161,2.873-0.521,4.266c-0.302,1.203-0.851,2.331-1.612,3.31
	c-0.742,0.919-1.71,1.631-2.809,2.065c-1.311,0.492-2.719,0.671-4.112,0.521v-3.436c0.982,0.068,1.968-0.067,2.895-0.396
	c0.758-0.28,1.425-0.76,1.93-1.39c0.503-0.658,0.856-1.42,1.033-2.229c0.216-0.95,0.319-1.922,0.309-2.895
	c0-0.8-0.097-1.598-0.29-2.374c-0.174-0.741-0.475-1.446-0.888-2.085c-0.379-0.575-0.88-1.059-1.467-1.419
	c-0.684-0.389-1.462-0.583-2.249-0.56c-0.581-0.013-1.157,0.113-1.679,0.367c-0.465,0.23-0.873,0.56-1.197,0.965
	c-0.338,0.448-0.611,0.942-0.811,1.467c-0.225,0.581-0.419,1.174-0.579,1.776l-0.965,3.513c-0.212,0.762-0.497,1.502-0.849,2.21
	c-0.329,0.678-0.762,1.299-1.284,1.843c-0.527,0.536-1.153,0.965-1.843,1.264c-0.797,0.332-1.656,0.493-2.519,0.473
	c-1.141,0.046-2.272-0.221-3.272-0.772c-0.908-0.566-1.687-1.315-2.287-2.201c-0.641-0.911-1.118-1.927-1.409-3.002
	c-0.33-1.113-0.505-2.266-0.521-3.426c-0.005-1.23,0.16-2.454,0.492-3.639c0.286-1.088,0.773-2.113,1.438-3.021
	c0.682-0.897,1.573-1.613,2.596-2.085c1.17-0.518,2.448-0.747,3.725-0.666v3.436C7.385,252.71,6.518,252.854,5.706,253.166z"/>
<path d="M3.515,232.879l22.941,4.826v3.436l-22.941-4.826v8.686l-2.895-0.618v-20.847l2.895,0.647v8.686L3.515,232.879z"/>
<path d="M0.62,210.671L26.456,206v3.542l-7.779,1.197v10.896l7.779,4.527v3.803L0.62,214.435V210.671z M15.782,211.183l-12.122,1.93
	v0.077l12.122,6.862v-8.899V211.183z"/>
<path d="M0.62,185.877c0-2.535,0.544-4.369,1.631-5.501c1.2-1.17,2.834-1.785,4.507-1.699c1.439,0.004,2.839,0.467,3.996,1.322
	c0.569,0.423,1.059,0.942,1.448,1.535c0.408,0.623,0.674,1.328,0.782,2.065h0.077c0.307-1.133,0.987-2.129,1.93-2.828
	c1.003-0.724,2.219-1.094,3.455-1.052c1.149-0.018,2.287,0.223,3.33,0.705c0.972,0.45,1.832,1.109,2.519,1.93
	c0.704,0.86,1.243,1.841,1.592,2.895c0.381,1.155,0.57,2.365,0.56,3.581v12.778L0.62,196.271V185.877z M11.728,187.614
	c0-3.668-1.641-5.501-4.922-5.501c-0.639-0.036-1.272,0.137-1.805,0.492c-0.426,0.322-0.759,0.752-0.965,1.245
	c-0.221,0.526-0.361,1.082-0.415,1.65c-0.057,0.558-0.086,1.118-0.087,1.679v6.37l8.213,1.737v-7.721L11.728,187.614z
	 M23.561,189.428c-0.009-0.568-0.051-1.135-0.125-1.699c-0.09-0.722-0.309-1.421-0.647-2.065c-0.373-0.699-0.905-1.301-1.554-1.757
	c-0.827-0.538-1.804-0.798-2.789-0.743c-0.689-0.03-1.374,0.12-1.988,0.434c-0.492,0.272-0.895,0.681-1.158,1.177
	c-0.276,0.531-0.459,1.106-0.54,1.699c-0.098,0.665-0.146,1.336-0.145,2.007v7.383l8.937,1.93v-8.32L23.561,189.428z"/>
<path d="M0.62,166.226l22.941,4.826v-13.734l2.895,0.618v17.122L0.62,169.672v-3.436V166.226z"/>
<path d="M0.62,129.995l2.895,0.579v14.371l8.213,1.737v-13.396l2.895,0.579v13.425l8.937,1.93v-14.593l2.895,0.647v17.99
	L0.62,147.802V129.995z"/>
<path d="M0.62,106.542l22.198-3.436v-0.068L0.62,90.26v-4.787l25.837,5.463v3.291L3.862,88.947v0.077l22.623,13.174v3.291
	l-22.623,3.368v0.077l22.623,4.527v3.32L0.62,111.319v-4.826V106.542z"/>
<path d="M0.62,60.032l2.895,0.579v14.371l8.213,1.737V63.333l2.895,0.579v13.425l8.937,1.93V64.664l2.895,0.647v18L0.62,77.839
	V60.032z"/>
<path d="M0.62,45.284c0-3.217,0.881-5.649,2.644-7.296c1.998-1.738,4.595-2.628,7.239-2.48c2.245-0.03,4.477,0.326,6.602,1.052
	c1.851,0.624,3.56,1.608,5.028,2.895c1.388,1.254,2.483,2.8,3.204,4.527c0.767,1.86,1.148,3.856,1.12,5.868v9.989L0.62,54.328
	V45.284z M23.561,49.84c0.046-1.676-0.333-3.335-1.1-4.826c-0.708-1.328-1.696-2.487-2.895-3.397
	c-1.236-0.93-2.633-1.624-4.121-2.046c-1.504-0.442-3.065-0.666-4.633-0.666c-0.926-0.001-1.848,0.103-2.751,0.309
	c-0.83,0.211-1.603,0.6-2.268,1.139c-0.716,0.585-1.276,1.337-1.631,2.191c-0.447,1.122-0.657,2.325-0.618,3.532v5.501l20.046,4.237
	V49.84H23.561z"/>
<path d="M0.62,23.588l25.837,5.434v3.436L0.62,27.024V23.588z"/>
<path d="M0.62,4.671L26.456,0v3.542l-7.779,1.197v10.896l7.779,4.527v3.803L0.62,8.435V4.671z M15.782,5.173L3.66,7.103v0.058
	l12.122,6.91V5.173z"/>
<rect x="41.011" width="1.93" height="595.28"/>
</svg>
