<?xml version="1.0" encoding="utf-8"?>
<!-- Generator: Adobe Illustrator 15.0.0, SVG Export Plug-In . SVG Version: 6.00 Build 0)  -->
<!DOCTYPE svg PUBLIC "-//W3C//DTD SVG 1.1//EN" "http://www.w3.org/Graphics/SVG/1.1/DTD/svg11.dtd">
<svg version="1.1" id="Layer_1" xmlns="http://www.w3.org/2000/svg" xmlns:xlink="http://www.w3.org/1999/xlink" x="0px" y="0px"
	 width="32px" height="32px" viewBox="0 0 32 32" enable-background="new 0 0 32 32" xml:space="preserve">
<path d="M18.292,9.557c-1.44,0.523-2.351,1.875-2.248,3.354l0.035,0.571l-0.577-0.07c-2.098-0.268-3.929-1.176-5.484-2.703
	L9.257,9.952l-0.196,0.56c-0.414,1.247-0.148,2.563,0.715,3.449c0.461,0.49,0.356,0.561-0.438,0.268
	c-0.275-0.092-0.52-0.162-0.542-0.127c-0.08,0.082,0.196,1.142,0.415,1.562c0.301,0.583,0.911,1.153,1.579,1.491l0.565,0.269
	l-0.668,0.011c-0.646,0-0.668,0.012-0.6,0.258c0.23,0.759,1.141,1.562,2.155,1.912l0.714,0.244l-0.622,0.373
	c-0.921,0.537-2.005,0.838-3.089,0.86c-0.52,0.013-0.945,0.06-0.945,0.093c0,0.117,1.407,0.77,2.225,1.026
	c2.455,0.757,5.371,0.43,7.562-0.862c1.556-0.921,3.111-2.75,3.837-4.521c0.393-0.942,0.784-2.668,0.784-3.494
	c0-0.536,0.034-0.606,0.681-1.247c0.381-0.373,0.736-0.78,0.807-0.897c0.115-0.221,0.104-0.221-0.483-0.023
	c-0.979,0.351-1.119,0.304-0.634-0.221c0.357-0.373,0.783-1.049,0.783-1.246c0-0.035-0.172,0.022-0.368,0.127
	c-0.207,0.117-0.669,0.293-1.015,0.396l-0.623,0.199l-0.563-0.385c-0.312-0.209-0.748-0.442-0.979-0.514
	C19.721,9.346,18.822,9.369,18.292,9.557z M16,32C7.164,32,0,24.836,0,16S7.164,0,16,0s16,7.164,16,16S24.836,32,16,32z"/>
</svg>
