<?xml version="1.0" encoding="utf-8"?>
<!-- Generator: Adobe Illustrator 16.0.0, SVG Export Plug-In . SVG Version: 6.00 Build 0)  -->
<!DOCTYPE svg PUBLIC "-//W3C//DTD SVG 1.1//EN" "http://www.w3.org/Graphics/SVG/1.1/DTD/svg11.dtd">
<svg version="1.1" id="Layer_1" xmlns="http://www.w3.org/2000/svg" xmlns:xlink="http://www.w3.org/1999/xlink" x="0px" y="0px"
	 width="960px" height="560px" viewBox="0 0 960 560" enable-background="new 0 0 960 560" xml:space="preserve">
<path fill-rule="evenodd" clip-rule="evenodd" d="M707.227,352.362c-35.669-1.687-63.965-2.679-92.213-4.45
	c-34.4-2.156-68.756-5.03-103.14-7.479c-40.356-2.874-80.714-5.736-121.092-8.264c-4.405-0.276-9.068,1.343-13.37,2.797
	c-1.598,0.54-2.502,3.13-3.723,4.785c1.545,1.084,2.94,2.621,4.656,3.187c33.498,11.025,67.027,21.96,100.563,32.87
	c72.44,23.568,144.889,47.111,217.333,70.667c21.037,6.841,41.929,14.182,63.153,20.378c15.925,4.649,22.555,24.398,7.984,36.343
	c-5.534,4.537-10.669,9.557-16.1,14.224c-13.648,11.73-29.147,14.688-46.182,9.166c-34.968-11.337-69.885-22.826-104.836-34.214
	c-150.724-49.11-301.451-98.206-452.178-147.305c-15.499-5.049-31.09-9.839-46.463-15.245c-5.885-2.069-11.745-4.885-16.79-8.51
	c-7.614-5.472-8.423-13.263-3.134-21.068c1.577-2.329,3.378-4.604,5.46-6.479c16.222-14.594,32.623-28.988,48.796-43.637
	c12.356-11.191,26.891-16.723,43.348-16.18c21.943,0.724,43.886,1.909,65.78,3.54c34.21,2.549,68.361,5.885,102.571,8.432
	c37.362,2.782,74.751,5.254,112.152,7.466c26.926,1.592,53.879,3.018,80.84,3.646c32.302,0.752,64.63,1.026,96.937,0.642
	c21.295-0.254,42.655-1.539,63.268-7.759c5.038-1.521,10.045-3.687,14.51-6.455c9.062-5.619,11.132-13.508,6.969-23.288
	c-3.975-9.337-10.501-16.491-18.715-22.261c-17.45-12.255-36.818-20.697-56.626-28.151
	c-58.145-21.879-117.956-37.286-179.501-45.959c-39.001-5.495-78.195-7.711-117.549-7.637c-10.639,0.021-21.278,0.06-31.916-0.057
	c-1.779-0.019-3.614-0.611-5.314-1.236c-9.375-3.444-11.646-11.344-4.4-18.144c15.295-14.356,30.808-28.522,46.871-42.003
	c10.93-9.171,24.688-11.916,38.559-11.068c29.73,1.817,59.529,3.514,89.074,7.112c40.373,4.916,79.733,15.192,118.815,26.297
	c70.55,20.045,139.309,44.889,204.9,77.942c33.392,16.828,65.48,35.789,93.169,61.312c11.206,10.329,21.175,21.724,27.42,35.878
	c8.932,20.244,5.537,39.292-9.943,55.135c-16.592,16.979-37.504,26.295-59.875,32.496c-24.015,6.658-48.731,9.322-73.547,10.377
	C755.81,351.393,727.837,351.809,707.227,352.362z"/>
<path fill-rule="evenodd" clip-rule="evenodd" d="M-354.07,3.025c0-43.146-0.154-86.292,0.088-129.437
	c0.08-14.131,0.525-28.326,2.006-42.365c1.673-15.855,10.786-22.574,26.257-19.23c13.124,2.837,25.967,7.1,38.785,11.199
	c27.244,8.714,54.391,17.731,81.576,26.629c0.79,0.258,1.565,0.56,2.341,0.858c15.638,6.009,19.711,11.619,19.727,28.428
	c0.015,15.318-0.64,30.639-0.57,45.957c0.205,44.974,0.558,89.947,1.041,134.919c0.064,5.958,0.802,11.987,1.961,17.839
	c1.916,9.673,7.157,14.071,16.947,12.882c11.348-1.379,22.77-3.302,33.743-6.443C-35.662,57.205,58.735,29.77,153.203,2.583
	c15.807-4.549,31.724-8.771,47.735-12.523c10.949-2.566,21.896-0.72,32.486,2.697c31.021,10.009,62.037,20.035,92.988,30.258
	c13.589,4.488,16.599,15.704,6.304,25.607c-5.101,4.907-11.744,9.124-18.453,11.285c-26.268,8.462-52.797,16.128-79.307,23.821
	c-122.846,35.647-245.71,71.229-368.584,106.778c-29.08,8.413-58.18,16.764-87.355,24.838c-11.506,3.184-23.01,2.24-34.411-1.56
	c-26.188-8.729-52.475-17.167-78.711-25.752c-14.154-4.632-17.261-8.49-18.171-23.11c-0.299-4.802,0.033-9.642,0.034-14.465
	c0.006-49.145,0.004-98.288,0.004-147.433C-352.849,3.025-353.459,3.025-354.07,3.025z"/>
<path fill-rule="evenodd" clip-rule="evenodd" d="M752.068,543.148c5.176,1.089,10.503,1.711,15.504,3.336
	c92.359,30.006,184.674,60.147,277.009,90.226c73.99,24.103,147.994,48.158,221.991,72.237c12.46,4.055,18.852,14.39,15.225,25.594
	c-1.121,3.466-3.551,6.825-6.184,9.42c-5.801,5.718-11.964,11.099-18.248,16.293c-12.573,10.395-27.006,13.835-42.568,8.909
	c-39.473-12.494-78.798-25.452-118.168-38.269c-103.241-33.61-206.474-67.246-309.712-100.866
	c-24.666-8.032-49.342-16.033-74.008-24.067c-10.52-3.426-16.101-10.532-16.159-20.258c-0.037-5.919,2.457-10.662,6.663-14.518
	c6.383-5.849,12.799-11.676,19.44-17.225C731.241,546.954,740.74,543.821,752.068,543.148z"/>
</svg>
