<?xml version="1.0" encoding="utf-8"?>
<!-- Generator: Adobe Illustrator 15.0.0, SVG Export Plug-In . SVG Version: 6.00 Build 0)  -->
<!DOCTYPE svg PUBLIC "-//W3C//DTD SVG 1.1//EN" "http://www.w3.org/Graphics/SVG/1.1/DTD/svg11.dtd">
<svg version="1.1" id="Layer_1" xmlns="http://www.w3.org/2000/svg" xmlns:xlink="http://www.w3.org/1999/xlink" x="0px" y="0px"
	 width="32px" height="32px" viewBox="10.334 8.167 32 32" enable-background="new 10.334 8.167 32 32" xml:space="preserve">
<path d="M26.334,8.167c-8.836,0-16,7.164-16,16s7.164,16,16,16s16-7.164,16-16S35.17,8.167,26.334,8.167z M31.25,28.282
	c-2.602,3.375-4.805,5.062-6.606,5.062c-1.116,0-2.06-1.03-2.832-3.089l-1.544-5.663c-0.571-2.06-1.187-3.09-1.846-3.09
	c-0.142,0-0.643,0.301-1.501,0.901l-0.901-1.158c0.944-0.829,1.874-1.659,2.789-2.487c1.259-1.088,2.202-1.66,2.831-1.717
	c1.487-0.143,2.402,0.872,2.747,3.045c0.371,2.346,0.629,3.805,0.771,4.377c0.43,1.945,0.9,2.917,1.416,2.917
	c0.4,0,1.001-0.629,1.802-1.888c0.801-1.258,1.229-2.217,1.287-2.875c0.114-1.086-0.314-1.629-1.287-1.629
	c-0.458,0-0.93,0.1-1.416,0.301c0.943-3.061,2.746-4.549,5.406-4.463c1.974,0.057,2.902,1.33,2.789,3.818
	C35.068,22.505,33.768,25.051,31.25,28.282z"/>
</svg>
