<?xml version="1.0" encoding="utf-8"?>
<!-- Generator: Adobe Illustrator 15.0.0, SVG Export Plug-In . SVG Version: 6.00 Build 0)  -->
<!DOCTYPE svg PUBLIC "-//W3C//DTD SVG 1.1//EN" "http://www.w3.org/Graphics/SVG/1.1/DTD/svg11.dtd">
<svg version="1.1" id="Layer_1" xmlns="http://www.w3.org/2000/svg" xmlns:xlink="http://www.w3.org/1999/xlink" x="0px" y="0px"
	 width="32px" height="32px" viewBox="29 7.742 32 32" enable-background="new 29 7.742 32 32" xml:space="preserve">
<g>
	<path d="M47.387,25.531c-0.344,0-0.662,0.188-0.951,0.559v-2.541h-1.094v7.873h1.094v-0.434c0.275,0.344,0.619,0.516,1.035,0.516
		c0.646,0,0.969-0.426,0.969-1.281v-3.225C48.439,26.02,48.088,25.531,47.387,25.531z M47.346,30.1c0,0.33-0.131,0.496-0.393,0.496
		c-0.193,0-0.365-0.09-0.518-0.27v-3.637c0.152-0.15,0.305-0.227,0.455-0.227c0.303,0,0.455,0.191,0.455,0.578V30.1z"/>
	<path d="M43.213,30.037c-0.289,0.289-0.504,0.434-0.641,0.434c-0.193,0-0.289-0.131-0.289-0.393v-4.463h-1.076v4.896
		c0,0.662,0.248,0.992,0.744,0.992c0.441,0,0.861-0.24,1.262-0.723v0.641h1.074v-5.807h-1.074V30.037z"/>
	<path d="M44.41,19.25c0.318,0,0.477-0.172,0.477-0.517v-3.161c0-0.124-0.049-0.227-0.145-0.31
		c-0.098-0.083-0.207-0.124-0.332-0.124c-0.123,0-0.229,0.038-0.318,0.114c-0.09,0.076-0.135,0.176-0.135,0.3v3.224
		C43.957,19.092,44.107,19.25,44.41,19.25z"/>
	<path d="M50.898,25.471c-0.494,0-0.891,0.158-1.188,0.475c-0.295,0.316-0.443,0.723-0.443,1.219v2.625
		c0,0.521,0.131,0.953,0.393,1.291c0.262,0.336,0.654,0.506,1.178,0.506c1.074,0,1.611-0.598,1.611-1.797v-0.434h-1.115
		c0,0.027,0.004,0.121,0.01,0.279c0.008,0.158,0.004,0.271-0.01,0.34s-0.031,0.162-0.053,0.279c-0.02,0.117-0.066,0.201-0.133,0.248
		c-0.07,0.049-0.166,0.072-0.291,0.072c-0.316,0-0.475-0.277-0.475-0.826v-1.096h2.066v-1.488c0-0.523-0.127-0.936-0.383-1.24
		C51.812,25.621,51.424,25.471,50.898,25.471z M51.334,27.742h-0.951v-0.619c0-0.428,0.158-0.641,0.475-0.641
		c0.318,0,0.477,0.213,0.477,0.641V27.742z"/>
	<polygon points="41.207,23.549 37.469,23.549 37.469,24.686 38.73,24.686 38.73,31.422 39.947,31.422 39.947,24.686 41.207,24.686 
			"/>
	<path d="M45,7.742c-8.836,0-16,7.164-16,16s7.164,16,16,16s16-7.164,16-16S53.836,7.742,45,7.742z M46.912,14.291h1.074v4.443
		c0,0.263,0.096,0.394,0.289,0.394c0.178,0,0.393-0.146,0.641-0.435v-4.402h1.074v5.807h-1.074v-0.641
		c-0.4,0.481-0.82,0.725-1.26,0.725c-0.496,0-0.744-0.332-0.744-0.994V14.291z M44.453,14.146c0.453,0,0.822,0.138,1.105,0.414
		c0.281,0.275,0.422,0.64,0.422,1.095v2.996c0,0.496-0.137,0.887-0.412,1.168c-0.275,0.282-0.662,0.424-1.158,0.424
		c-0.482,0-0.863-0.148-1.146-0.444c-0.281-0.296-0.424-0.685-0.424-1.167v-3.017c0-0.469,0.152-0.831,0.455-1.085
		C43.598,14.274,43.984,14.146,44.453,14.146z M40.051,12.225l0.785,3.141h0.084l0.744-3.141h1.238l-0.951,3.059
		c-0.316,1.005-0.475,1.522-0.475,1.549v3.265h-1.219v-3.12c-0.027-0.194-0.064-0.369-0.113-0.527
		c-0.049-0.159-0.111-0.341-0.186-0.548c-0.076-0.207-0.135-0.379-0.176-0.517l-0.973-3.162H40.051z M53.812,30.945
		c-0.055,0.73-0.316,1.326-0.785,1.787c-0.469,0.463-1.066,0.715-1.797,0.756c-1.379,0.068-3.451,0.102-6.221,0.102
		c-2.768,0-4.842-0.033-6.219-0.102c-0.73-0.041-1.33-0.293-1.799-0.756c-0.467-0.461-0.73-1.057-0.785-1.787
		c-0.082-1.488-0.123-2.602-0.123-3.346c0-0.746,0.041-1.861,0.123-3.348c0.055-0.732,0.318-1.326,0.785-1.788
		c0.469-0.462,1.068-0.712,1.799-0.755c1.377-0.068,3.451-0.104,6.219-0.104c2.77,0,4.842,0.035,6.221,0.104
		c0.73,0.043,1.328,0.293,1.797,0.755s0.73,1.056,0.785,1.788c0.068,1.238,0.104,2.354,0.104,3.348
		C53.916,28.592,53.881,29.705,53.812,30.945z"/>
</g>
</svg>
